<?xml version="1.0" encoding="utf-8"?>
<svg version="1.1" id="Layer_1"
xmlns="http://www.w3.org/2000/svg"
xmlns:xlink="http://www.w3.org/1999/xlink"
width="268px" height="165px"
xml:space="preserve">
<g id="PathID_1" transform="matrix(1, 0, 0, 1, 5.85, 5.5)" opacity="1">
<path style="fill:#4A7DBC;fill-opacity:1" d="M88.85 88.75L88.75 91.75L88.85 94.75L89.2 97.75L89.6 104.1Q89.8 107.25 90.3 110.4L90.85 112.85Q91.2 113.95 92.4 114.6L95.9 116.1Q98.15 116.9 100.15 117.9Q102.2 118.9 103.65 120.45Q105.1 122 105.75 124.55Q106.4 127.2 106.4 130.15Q106.45 133.15 105.8 135.8Q105.3 137.6 104.25 138.45L101.95 139.85Q100.65 140.45 99.3 141.4Q99.95 142.2 100.85 142.65L102.5 143.8Q103.25 144.7 103.35 145.95Q103.35 146.65 103 146.95L101.95 147.25L100.75 147.3L96.75 147.3L92.75 147.6L86.05 148.75L75.8 149.4L65.5 149.4L55.25 149.4L39 149.75L22.8 150L19.05 149.95L15.3 149.5L11.85 149.2L8.4 149.25L7.05 149.25L5.25 149.15L3.7 148.75Q3.15 148.45 3.25 147.8Q3.6 146.55 4.5 145.7Q5.4 144.8 6.55 144.35Q7.35 143.95 7.05 143.5L5.95 142.5L4.75 141.6Q3.15 140.15 2 138.3Q0.75 136.3 0.25 134Q-0.2 131.7 0.15 129.35Q0.75 125.5 2.6 123.05Q4.5 120.55 7.3 119Q10.1 117.45 13.5 116.4Q15.3 115.9 16.3 114.95Q17.35 114.05 17.65 112.25L18.65 105.65Q19.15 101.8 19.25 98.05Q19.4 94.3 19.15 90.45Q19 86 19.6 81.7Q20.25 77.35 21.3 73.05L23.3 64.45L24.1 60.7Q24.5 58.85 25.2 57.1Q25.9 55.35 27.15 53.85Q28.55 52.25 30.35 51.15Q32.2 50.05 34.2 49.4Q36.8 48.6 39.6 48.35L42.1 48.25L43.15 48.3L43.7 48.2L43.95 47.35L44.25 44.45L43.15 44.3Q42.65 44.25 42.2 43.85Q41.45 43.05 41.35 41.95L41.2 39.85Q41.05 36.65 40.4 33.45L39.25 27.1L38.45 23.35Q37.95 21.3 38.05 19.4Q38.1 17.45 39.45 16.05Q38.8 15.45 38.85 15.2L39.1 14.6Q39.35 14.3 39.2 13.7Q39.1 13.25 39.35 13L40 12.55L39.7 11.45Q39.6 11.05 40.2 10.6Q40.8 10.2 40.8 9.8L40.85 9.1Q40.85 8.8 41.6 8.55Q42.85 8.2 43.6 7.2Q43.9 6.75 44.35 6.65L45.1 6.4Q45.4 6.25 45.4 5.7Q45.4 4.95 45.75 4.95L46.8 4.85Q46.8 3.5 47.75 2.4Q48.6 1.25 49.85 0.6L51.25 0.35L52.65 0.55L54.05 0.35L54.9 0.3L55.5 0.65L56.1 0.7L56.55 0.35L56.7 0.1L57.4 0L57.75 0.9L58.35 0.95L59.3 0.8L59.3 1.7Q59.35 1.95 60.1 2.1Q61.3 2 60.8 3.1Q60.65 3.9 61 3.95L62.05 4.05L62.05 5.6L63 5.8L63.25 6.35Q63.3 6.7 63.95 7.05L65.25 8L66.45 9.1L67.25 9.7L67.65 10.2L67.9 11.25Q68.05 12.4 68.65 13.35L68.9 14.25L68.55 14.55Q68.35 14.65 68.7 15.3L69 16.1L69 17L69.85 17.05L70.25 17.3L70.3 18.2L70 21.25L68.7 27.1Q67.8 30.15 67.15 33.15Q66.45 36.15 66.1 39.3L65.7 41.35Q65.45 42.45 64.7 43.2L63.9 43.7L63 43.85L63.15 47.2Q63.2 48 63.5 48.3L64.4 48.65L65.7 48.75L68.2 49.1L73.1 49.8Q75.4 50.25 77.3 51.2Q79.25 52.2 80.65 54.1Q82.65 56.95 83.85 60.25Q85.05 63.6 85.75 67.1L87 74L88.65 85.8L88.85 88.75" />
</g>
<g id="PathID_2" transform="matrix(1, 0, 0, 1, 5.85, 5.5)" opacity="1">
</g>
<g id="PathID_3" transform="matrix(1.40625, 0, 0, 1.40625, 129, 91.45)" opacity="1">
<path style="fill:#4A7DBC;fill-opacity:1" d="M3.05 -33.2L3.05 -36.8L22.5 -36.8L7.05 -3.6L21.7 -3.6L21.7 0L1.4 0L16.95 -33.2L3.05 -33.2" />
</g>
<g id="PathID_4" transform="matrix(1.40625, 0, 0, 1.40625, 129, 91.45)" opacity="1">
</g>
<g id="PathID_5" transform="matrix(1.40625, 0, 0, 1.40625, 163.55, 91.45)" opacity="1">
<path style="fill:#4A7DBC;fill-opacity:1" d="M26.85 -9L29.8 -7.45Q28.3 -4.6 26.4 -2.85Q24.5 -1.1 22.1 -0.2Q19.75 0.7 16.75 0.7Q10.1 0.7 6.35 -3.65Q2.6 -8 2.6 -13.5Q2.6 -18.7 5.75 -22.75Q9.8 -27.9 16.55 -27.9Q23.5 -27.9 27.65 -22.6Q30.65 -18.85 30.7 -13.3L6.2 -13.3Q6.3 -8.55 9.2 -5.55Q12.15 -2.55 16.45 -2.55Q18.55 -2.55 20.5 -3.25Q22.45 -3.95 23.8 -5.15Q25.2 -6.35 26.85 -9M26.85 -16.35Q26.1 -19.15 24.75 -20.8Q23.45 -22.5 21.25 -23.5Q19.05 -24.55 16.6 -24.55Q12.6 -24.55 9.7 -21.95Q7.6 -20.1 6.55 -16.35L26.85 -16.35" />
</g>
<g id="PathID_6" transform="matrix(1.40625, 0, 0, 1.40625, 163.55, 91.45)" opacity="1">
</g>
<g id="PathID_7" transform="matrix(1.40625, 0, 0, 1.40625, 210.35, 91.45)" opacity="1">
<path style="fill:#4A7DBC;fill-opacity:1" d="M3.9 -27.2L7.4 -27.2L7.4 -22.3Q9.5 -25.1 12.05 -26.5Q14.6 -27.9 17.6 -27.9Q20.65 -27.9 23 -26.35Q25.35 -24.8 26.5 -22.15Q27.65 -19.55 27.65 -14L27.65 0L24.15 0L24.15 -12.95Q24.15 -17.65 23.75 -19.2Q23.1 -21.9 21.35 -23.25Q19.65 -24.65 16.9 -24.65Q13.7 -24.65 11.2 -22.55Q8.7 -20.45 7.9 -17.35Q7.4 -15.3 7.4 -9.95L7.4 0L3.9 0L3.9 -27.2" />
</g>
<g id="PathID_8" transform="matrix(1.40625, 0, 0, 1.40625, 210.35, 91.45)" opacity="1">
</g>
<g id="PathID_9" transform="matrix(0.46875, 0, 0, 0.46875, 127, 133.2)" opacity="1">
<path style="fill:#4A7DBC;fill-opacity:1" d="M3.4 10.2L3.4 -26.55L7.5 -26.55L7.5 -23.05Q8.95 -25.1 10.75 -26.1Q12.6 -27.15 15.2 -27.15Q18.6 -27.15 21.2 -25.4Q23.8 -23.65 25.1 -20.45Q26.45 -17.25 26.45 -13.45Q26.45 -9.4 24.95 -6.1Q23.5 -2.85 20.7 -1.1Q17.95 0.6 14.85 0.6Q12.6 0.6 10.8 -0.35Q9.05 -1.3 7.9 -2.75L7.9 10.2L3.4 10.2M7.45 -13.1Q7.45 -7.95 9.5 -5.5Q11.55 -3.1 14.5 -3.1Q17.5 -3.1 19.65 -5.6Q21.8 -8.15 21.8 -13.45Q21.8 -18.55 19.7 -21.05Q17.6 -23.6 14.7 -23.6Q11.85 -23.6 9.65 -20.9Q7.45 -18.2 7.45 -13.1" />
</g>
<g id="PathID_10" transform="matrix(0.46875, 0, 0, 0.46875, 127, 133.2)" opacity="1">
</g>
<g id="PathID_11" transform="matrix(0.46875, 0, 0, 0.46875, 140.35, 133.2)" opacity="1">
<path style="fill:#4A7DBC;fill-opacity:1" d="M3.35 0L3.35 -26.55L7.4 -26.55L7.4 -22.5Q8.9 -25.35 10.2 -26.25Q11.55 -27.15 13.1 -27.15Q15.4 -27.15 17.75 -25.7L16.15 -21.5Q14.55 -22.5 12.9 -22.5Q11.4 -22.5 10.2 -21.6Q9.05 -20.7 8.55 -19.15Q7.85 -16.75 7.85 -13.9L7.85 0L3.35 0" />
</g>
<g id="PathID_12" transform="matrix(0.46875, 0, 0, 0.46875, 140.35, 133.2)" opacity="1">
</g>
<g id="PathID_13" transform="matrix(0.46875, 0, 0, 0.46875, 148.3, 133.2)" opacity="1">
<path style="fill:#4A7DBC;fill-opacity:1" d="M1.7 -13.25Q1.7 -20.65 5.8 -24.2Q9.2 -27.15 14.15 -27.15Q19.6 -27.15 23.1 -23.55Q26.6 -19.95 26.6 -13.65Q26.6 -8.5 25.05 -5.55Q23.5 -2.65 20.55 -1Q17.6 0.6 14.15 0.6Q8.55 0.6 5.1 -2.95Q1.7 -6.55 1.7 -13.25M6.35 -13.25Q6.35 -8.15 8.55 -5.6Q10.75 -3.1 14.15 -3.1Q17.5 -3.1 19.7 -5.6Q21.95 -8.15 21.95 -13.4Q21.95 -18.3 19.7 -20.85Q17.45 -23.4 14.15 -23.4Q10.75 -23.4 8.55 -20.85Q6.35 -18.35 6.35 -13.25" />
</g>
<g id="PathID_14" transform="matrix(0.46875, 0, 0, 0.46875, 148.3, 133.2)" opacity="1">
</g>
<g id="PathID_15" transform="matrix(0.46875, 0, 0, 0.46875, 161.65, 133.2)" opacity="1">
<path style="fill:#4A7DBC;fill-opacity:1" d="M2.55 2.2L6.95 2.8Q7.2 4.85 8.45 5.8Q10.1 7.05 13 7.05Q16.1 7.05 17.8 5.8Q19.5 4.55 20.1 2.3Q20.45 0.95 20.45 -3.5Q17.5 0 13.1 0Q7.6 0 4.6 -3.95Q1.65 -7.9 1.65 -13.4Q1.65 -17.2 3 -20.4Q4.4 -23.65 7 -25.4Q9.6 -27.15 13.15 -27.15Q17.85 -27.15 20.9 -23.3L20.9 -26.55L25.05 -26.55L25.05 -3.55Q25.05 2.65 23.75 5.2Q22.5 7.8 19.75 9.3Q17.05 10.8 13.05 10.8Q8.3 10.8 5.35 8.65Q2.45 6.55 2.55 2.2M6.3 -13.7Q6.3 -8.5 8.35 -6.1Q10.4 -3.75 13.55 -3.75Q16.65 -3.75 18.75 -6.1Q20.85 -8.5 20.85 -13.6Q20.85 -18.45 18.65 -20.9Q16.5 -23.4 13.45 -23.4Q10.45 -23.4 8.35 -20.95Q6.3 -18.5 6.3 -13.7" />
</g>
<g id="PathID_16" transform="matrix(0.46875, 0, 0, 0.46875, 161.65, 133.2)" opacity="1">
</g>
<g id="PathID_17" transform="matrix(0.46875, 0, 0, 0.46875, 175, 133.2)" opacity="1">
<path style="fill:#4A7DBC;fill-opacity:1" d="M3.35 0L3.35 -26.55L7.4 -26.55L7.4 -22.5Q8.9 -25.35 10.2 -26.25Q11.55 -27.15 13.1 -27.15Q15.4 -27.15 17.75 -25.7L16.15 -21.5Q14.55 -22.5 12.9 -22.5Q11.4 -22.5 10.2 -21.6Q9.05 -20.7 8.55 -19.15Q7.85 -16.75 7.85 -13.9L7.85 0L3.35 0" />
</g>
<g id="PathID_18" transform="matrix(0.46875, 0, 0, 0.46875, 175, 133.2)" opacity="1">
</g>
<g id="PathID_19" transform="matrix(0.46875, 0, 0, 0.46875, 182.95, 133.2)" opacity="1">
<path style="fill:#4A7DBC;fill-opacity:1" d="M20.7 -3.35Q18.2 -1.15 15.85 -0.25Q13.55 0.6 10.9 0.6Q6.55 0.6 4.2 -1.5Q1.85 -3.65 1.85 -7Q1.85 -8.95 2.7 -10.55Q3.6 -12.15 5.05 -13.1Q6.5 -14.1 8.3 -14.6Q9.6 -14.95 12.3 -15.3Q17.75 -15.95 20.3 -16.85L20.35 -18Q20.35 -20.75 19.05 -21.85Q17.35 -23.4 13.95 -23.4Q10.75 -23.4 9.25 -22.25Q7.75 -21.15 7.05 -18.35L2.65 -18.95Q3.25 -21.75 4.6 -23.5Q6 -25.25 8.6 -26.2Q11.2 -27.15 14.6 -27.15Q18 -27.15 20.1 -26.3Q22.25 -25.5 23.25 -24.3Q24.25 -23.1 24.65 -21.25Q24.9 -20.1 24.9 -17.1L24.9 -11.1Q24.9 -4.85 25.15 -3.15Q25.45 -1.5 26.3 0L21.6 0Q20.9 -1.4 20.7 -3.35M20.3 -13.3Q17.85 -12.3 12.95 -11.6Q10.15 -11.2 9 -10.7Q7.85 -10.2 7.25 -9.2Q6.65 -8.25 6.65 -7.1Q6.65 -5.3 8 -4.1Q9.35 -2.95 12 -2.95Q14.6 -2.95 16.6 -4.05Q18.65 -5.2 19.6 -7.15Q20.3 -8.65 20.3 -11.65L20.3 -13.3" />
</g>
<g id="PathID_20" transform="matrix(0.46875, 0, 0, 0.46875, 182.95, 133.2)" opacity="1">
</g>
<g id="PathID_21" transform="matrix(0.46875, 0, 0, 0.46875, 196.3, 133.2)" opacity="1">
<path style="fill:#4A7DBC;fill-opacity:1" d="M3.35 0L3.35 -26.55L7.35 -26.55L7.35 -22.8Q8.6 -24.75 10.65 -25.95Q12.75 -27.15 15.45 -27.15Q18.4 -27.15 20.25 -25.9Q22.15 -24.7 22.95 -22.5Q26.1 -27.15 31.2 -27.15Q35.15 -27.15 37.3 -24.95Q39.45 -22.75 39.45 -18.2L39.45 0L34.95 0L34.95 -16.7Q34.95 -19.4 34.5 -20.6Q34.05 -21.8 32.9 -22.5Q31.75 -23.25 30.2 -23.25Q27.4 -23.25 25.5 -21.35Q23.65 -19.5 23.65 -15.4L23.65 0L19.15 0L19.15 -17.25Q19.15 -20.25 18.05 -21.75Q16.95 -23.25 14.45 -23.25Q12.55 -23.25 10.9 -22.25Q9.3 -21.25 8.55 -19.3Q7.85 -17.4 7.85 -13.75L7.85 0L3.35 0" />
</g>
<g id="PathID_22" transform="matrix(0.46875, 0, 0, 0.46875, 196.3, 133.2)" opacity="1">
</g>
<g id="PathID_23" transform="matrix(0.46875, 0, 0, 0.46875, 216.25, 133.2)" opacity="1">
<path style="fill:#4A7DBC;fill-opacity:1" d="M3.35 0L3.35 -26.55L7.35 -26.55L7.35 -22.8Q8.6 -24.75 10.65 -25.95Q12.75 -27.15 15.45 -27.15Q18.4 -27.15 20.25 -25.9Q22.15 -24.7 22.95 -22.5Q26.1 -27.15 31.2 -27.15Q35.15 -27.15 37.3 -24.95Q39.45 -22.75 39.45 -18.2L39.45 0L34.95 0L34.95 -16.7Q34.95 -19.4 34.5 -20.6Q34.05 -21.8 32.9 -22.5Q31.75 -23.25 30.2 -23.25Q27.4 -23.25 25.5 -21.35Q23.65 -19.5 23.65 -15.4L23.65 0L19.15 0L19.15 -17.25Q19.15 -20.25 18.05 -21.75Q16.95 -23.25 14.45 -23.25Q12.55 -23.25 10.9 -22.25Q9.3 -21.25 8.55 -19.3Q7.85 -17.4 7.85 -13.75L7.85 0L3.35 0" />
</g>
<g id="PathID_24" transform="matrix(0.46875, 0, 0, 0.46875, 216.25, 133.2)" opacity="1">
</g>
<g id="PathID_25" transform="matrix(0.46875, 0, 0, 0.46875, 236.2, 133.2)" opacity="1">
<path style="fill:#4A7DBC;fill-opacity:1" d="M21.55 -8.6L26.2 -8Q25.1 -3.9 22.1 -1.65Q19.15 0.6 14.5 0.6Q8.7 0.6 5.3 -2.95Q1.9 -6.55 1.9 -13.05Q1.9 -19.75 5.3 -23.45Q8.75 -27.15 14.25 -27.15Q19.6 -27.15 22.95 -23.5Q26.35 -19.9 26.35 -13.3L26.3 -12.15L6.55 -12.15Q6.75 -7.75 8.95 -5.4Q11.2 -3.1 14.55 -3.1Q17 -3.1 18.75 -4.4Q20.5 -5.7 21.55 -8.6M6.8 -15.85L21.6 -15.85Q21.3 -19.15 19.9 -20.85Q17.75 -23.45 14.3 -23.45Q11.2 -23.45 9.1 -21.35Q7 -19.3 6.8 -15.85" />
</g>
<g id="PathID_26" transform="matrix(0.46875, 0, 0, 0.46875, 236.2, 133.2)" opacity="1">
</g>
<g id="PathID_27" transform="matrix(0.46875, 0, 0, 0.46875, 249.55, 133.2)" opacity="1">
<path style="fill:#4A7DBC;fill-opacity:1" d="M3.35 0L3.35 -26.55L7.4 -26.55L7.4 -22.5Q8.9 -25.35 10.2 -26.25Q11.55 -27.15 13.1 -27.15Q15.4 -27.15 17.75 -25.7L16.15 -21.5Q14.55 -22.5 12.9 -22.5Q11.4 -22.5 10.2 -21.6Q9.05 -20.7 8.55 -19.15Q7.85 -16.75 7.85 -13.9L7.85 0L3.35 0" />
</g>
<g id="PathID_28" transform="matrix(0.46875, 0, 0, 0.46875, 249.55, 133.2)" opacity="1">
</g>
</svg>
